<svg  viewBox="0 0 20 20" fill="none" xmlns="http://www.w3.org/2000/svg">
<path fill-rule="evenodd" clip-rule="evenodd" d="M4.3037 8.74757C3.93939 8.67337 3.54422 8.68754 3.13655 8.82343C2.4471 9.05353 1.90104 9.64627 1.73013 10.3532C1.37832 11.8063 2.46961 13.1035 3.86352 13.1035C4.01442 13.1035 4.16114 13.0877 4.3037 13.0594V15.7438C4.3037 16.7151 5.09153 17.5029 6.0636 17.5029H15.7435C16.7155 17.5029 17.5034 16.7151 17.5034 15.743V6.06311C17.5034 5.09104 16.7155 4.30322 15.7435 4.30322H13.059C13.1332 3.9389 13.119 3.54373 12.9832 3.13606C12.7522 2.44661 12.1595 1.90055 11.4533 1.72964C10.0002 1.37783 8.70304 2.46912 8.70304 3.86303C8.70304 4.01393 8.71888 4.16066 8.74722 4.30322H6.06277C5.0907 4.30322 4.30287 5.09104 4.30287 6.06311V8.74757H4.3037Z" stroke="currentColor" stroke-width="1.25" stroke-linecap="round" stroke-linejoin="round"/>
<path d="M10.8338 8.74902V12.0837" stroke="currentColor" stroke-width="1.25" stroke-linecap="round" stroke-linejoin="round"/>
<path d="M12.5007 10.4168H9.16602" stroke="currentColor" stroke-width="1.25" stroke-linecap="round" stroke-linejoin="round"/>
</svg>
