<svg  viewBox="0 0 20 20" fill="none" xmlns="http://www.w3.org/2000/svg">
<path d="M14.0193 13.48C13.9379 13.3986 13.938 13.2667 14.0193 13.1853C14.1007 13.104 14.2326 13.104 14.314 13.1853C14.3954 13.2667 14.3954 13.3986 14.3141 13.48C14.2327 13.5614 14.1007 13.5614 14.0193 13.48" stroke="currentColor" stroke-width="1.25" stroke-linecap="round" stroke-linejoin="round"/>
<path d="M9.85226 13.48C9.77094 13.3986 9.77099 13.2667 9.85236 13.1853C9.93373 13.104 10.0656 13.104 10.147 13.1853C10.2284 13.2667 10.2284 13.3986 10.1471 13.48C10.0657 13.5614 9.93367 13.5614 9.85226 13.48" stroke="currentColor" stroke-width="1.25" stroke-linecap="round" stroke-linejoin="round"/>
<path d="M5.68624 13.48C5.60493 13.3986 5.60497 13.2667 5.68634 13.1853C5.76771 13.104 5.89961 13.104 5.98098 13.1853C6.06235 13.2667 6.06239 13.3986 5.98108 13.48C5.89966 13.5614 5.76766 13.5614 5.68624 13.48" stroke="currentColor" stroke-width="1.25" stroke-linecap="round" stroke-linejoin="round"/>
<path d="M10 9.16602H15.8333C16.2754 9.16589 16.6994 9.34145 17.012 9.65404C17.3246 9.96662 17.5001 10.3906 17.5 10.8327V15.8327C17.5001 16.2747 17.3246 16.6987 17.012 17.0113C16.6994 17.3239 16.2754 17.4995 15.8333 17.4993H4.16667C3.7246 17.4995 3.30061 17.3239 2.98802 17.0113C2.67543 16.6987 2.49988 16.2747 2.5 15.8327V12.4993" stroke="currentColor" stroke-width="1.25" stroke-linecap="round" stroke-linejoin="round"/>
<path fill-rule="evenodd" clip-rule="evenodd" d="M8.10752 2.74418C8.26379 2.58785 8.47576 2.50002 8.69679 2.5C8.91783 2.49998 9.12982 2.58777 9.28612 2.74407L10.5889 4.04688C10.7452 4.20318 10.833 4.41517 10.833 4.63621C10.833 4.85725 10.7452 5.06922 10.5888 5.22549L6.05644 9.75603C5.90017 9.91225 5.68825 10 5.46729 10H3.74967C3.51956 10 3.33301 9.81346 3.33301 9.58334V7.86592C3.333 7.64495 3.42076 7.43303 3.57697 7.27675L8.10752 2.74418Z" stroke="currentColor" stroke-width="1.25" stroke-linecap="round" stroke-linejoin="round"/>
</svg>
