<svg viewBox="0 0 366 80" fill="none" xmlns="http://www.w3.org/2000/svg">
<path d="M41.2045 26.686C35.1989 26.686 30.3109 29.4993 28.0114 34.914C25.6412 29.5058 20.7468 26.686 14.8182 26.686C6.37177 26.686 0 31.9465 0 42.84V64.2546H4.9651V42.84C4.9651 35.0617 9.26219 31.2785 15.1908 31.2785C21.1193 31.2785 25.5641 35.203 25.5641 42.84V64.2546H30.5292V42.84C30.5292 35.2094 34.9034 31.2785 40.832 31.2785C46.7606 31.2785 51.0576 35.0553 51.0576 42.84V64.2546H56.0227V42.84C56.0227 31.9465 49.651 26.686 41.2045 26.686Z" fill="#292929"/>
<path d="M73.7249 29.2379C63.7112 35.0187 60.7308 46.1498 66.2868 55.7844C71.8429 65.4126 82.9806 68.3994 92.9943 62.6186C100.375 58.3537 103.927 51.1727 102.995 43.921L98.3127 46.6252C98.3705 51.4682 95.7113 55.7459 90.7013 58.6363C83.578 62.7471 75.9344 60.9165 71.541 54.6411L101.126 37.5558L100.31 36.1427C94.7543 26.5145 83.745 23.4571 73.7313 29.2379H73.7249ZM69.4342 50.7038C66.8007 43.921 69.4085 37.0291 76.0243 33.2074C82.6402 29.3856 89.6735 30.4583 94.401 36.2904L69.4342 50.7038Z" fill="#292929"/>
<path d="M128.649 26.686C117.833 26.686 110.568 32.9871 110.568 45.1395V64.261H115.533V45.1395C115.533 36.0958 120.723 31.285 128.649 31.285C136.575 31.285 141.765 36.1023 141.765 45.1395V64.261H146.73V45.1395C146.73 32.9871 139.466 26.686 128.649 26.686Z" fill="#292929"/>
<path d="M179.63 50.7748C179.63 57.5191 175.853 60.6278 170.22 60.6278C164.587 60.6278 160.81 57.442 160.81 50.7748V32.1736H182.372V27.6518H160.81V14.6836H155.845V50.7748C155.845 60.4094 161.696 65.2267 170.22 65.2267C178.743 65.2267 184.447 60.4094 184.447 50.7748V49.9591H179.63V50.7748Z" fill="#292929"/>
<path d="M227.431 26.686C216.614 26.686 209.35 32.9871 209.35 45.1395V64.261H214.315V45.1395C214.315 36.0958 219.505 31.285 227.431 31.285C235.357 31.285 240.547 36.1023 240.547 45.1395V64.261H245.512V45.1395C245.512 32.9871 238.247 26.686 227.431 26.686Z" fill="#292929"/>
<path d="M319.841 26.686C308.279 26.686 300.128 34.8369 300.128 45.9552C300.128 57.0736 308.279 65.2245 319.841 65.2245C331.403 65.2245 339.553 57.0736 339.553 45.9552C339.553 34.8369 331.403 26.686 319.841 26.686ZM319.841 60.6255C311.099 60.6255 305.17 54.4016 305.17 45.9552C305.17 37.5089 311.099 31.285 319.841 31.285C328.583 31.285 334.511 37.5089 334.511 45.9552C334.511 54.4016 328.583 60.6255 319.841 60.6255Z" fill="#292929"/>
<path d="M272.817 26.686C261.255 26.686 253.104 34.8369 253.104 45.9552C253.104 57.0736 261.255 65.2245 272.817 65.2245C284.379 65.2245 292.53 57.0736 292.53 45.9552C292.53 34.8369 284.379 26.686 272.817 26.686ZM272.817 60.6255C264.075 60.6255 258.146 54.4016 258.146 45.9552C258.146 37.5089 264.075 31.285 272.817 31.285C281.559 31.285 287.487 37.5089 287.487 45.9552C287.487 54.4016 281.559 60.6255 272.817 60.6255Z" fill="#292929"/>
<path d="M272.817 75.034C267.852 75.034 263.234 73.5374 259.393 70.9746L256.643 75.1111C261.275 78.2006 266.837 79.999 272.817 79.999C278.797 79.999 284.359 78.1941 288.99 75.1111L286.241 70.9746C282.4 73.5374 277.782 75.034 272.817 75.034Z" fill="#292929"/>
<path d="M192.598 26.6894C192.598 24.5376 194.23 22.9126 196.375 22.9126C198.521 22.9126 200.152 24.5441 200.152 26.6894C200.152 28.8347 198.521 30.4661 196.375 30.4661C194.23 30.4661 192.598 28.8347 192.598 26.6894Z" fill="#292929"/>
<path d="M196.381 36.8942C195.534 36.8942 194.718 36.785 193.934 36.5988V64.2694H198.899V36.5859C198.096 36.7851 197.255 36.9007 196.381 36.9007V36.8942Z" fill="#292929"/>
<path d="M272.823 31.2612V26.6944H290.16C290.16 29.2187 288.111 31.2612 285.593 31.2612H272.823Z" fill="#292929"/>
<path d="M350.993 34.3951C350.993 25.9488 356.922 19.7248 365.664 19.7248V15.1323C354.102 15.1323 345.951 23.2832 345.951 34.4015H350.993V34.3951Z" fill="#4796FD"/>
<path d="M331.223 19.7257C339.669 19.7257 345.893 25.6542 345.893 34.396H350.486C350.486 22.8345 342.335 14.6836 331.216 14.6836V19.7257H331.223Z" fill="#4796FD"/>
<path d="M365.664 14.6771C357.217 14.6771 350.993 8.74864 350.993 0.00683594H346.401C346.401 11.5684 354.551 19.7192 365.67 19.7192V14.6771H365.664Z" fill="#4796FD"/>
<path d="M345.893 0.00640974C345.893 8.45275 339.964 14.6767 331.222 14.6767V19.2692C342.784 19.2692 350.935 11.1183 350.935 0H345.893V0.00640974Z" fill="#4796FD"/>
</svg>
