<svg width="55" height="55" viewBox="0 0 55 55" fill="none" xmlns="http://www.w3.org/2000/svg">
    <g clip-path="url(#clip0_3066_4489)">
        <path
            d="M30.7126 0.000365653L23.3928 0.000365973C23.3928 16.9639 37.1418 30.7128 54.1053 30.7128L54.1053 23.393C41.1856 23.393 30.7229 12.9201 30.7229 0.0106014L30.7126 0.000365653Z"
            fill="#4796FD" />
        <path
            d="M23.3819 -0.000275919L30.7017 -0.000276239C30.7017 16.9632 16.9528 30.7122 -0.0107398 30.7122L-0.0107401 23.3924C12.909 23.3924 23.3717 12.9194 23.3717 0.00995985L23.3819 -0.000275919Z"
            fill="#4796FD" />
        <path
            d="M23.3822 54.0947L30.702 54.0947C30.7122 37.1312 16.9633 23.3823 -0.000243119 23.3823L-0.000242799 30.7021C12.9195 30.7021 23.3822 41.175 23.3822 54.0845L23.3822 54.0947Z"
            fill="#4796FD" />
        <path
            d="M30.7126 54.0947L23.3928 54.0947C23.3928 37.1312 37.1418 23.3823 54.1053 23.3823L54.1053 30.7021C41.1856 30.7021 30.7229 41.175 30.7229 54.0845L30.7126 54.0947Z"
            fill="#4796FD" />
    </g>
    <defs>
        <clipPath id="clip0_3066_4489">
            <rect width="54.0949" height="54.0949" fill="white"
                transform="translate(2.36456e-06 54.0949) rotate(-90)" />
        </clipPath>
    </defs>
</svg>