<svg viewBox="0 0 24 25" fill="none" xmlns="http://www.w3.org/2000/svg">
<g clip-path="url(#clip0_6204_6082)">
<path d="M12.7266 21.6748C12.8941 21.8226 13.0136 22.0185 13.0674 22.2354C13.121 22.452 13.1072 22.6799 13.0283 22.8887C12.9493 23.0977 12.8088 23.2783 12.625 23.4053C12.4412 23.5323 12.2224 23.5996 11.999 23.5996C11.7758 23.5995 11.5577 23.5321 11.374 23.4053C11.1902 23.2783 11.0497 23.0977 10.9707 22.8887C10.8918 22.6798 10.8779 22.452 10.9316 22.2354C10.9855 22.0185 11.1039 21.8226 11.2715 21.6748L11.999 21.0322L12.7266 21.6748ZM11.8838 1.24902C12.1169 1.22716 12.3518 1.27005 12.5615 1.37402C12.7713 1.47814 12.9486 1.63895 13.0723 1.83789C13.1959 2.03686 13.2613 2.26672 13.2617 2.50098C13.2621 2.77542 13.1731 3.04263 13.0078 3.26172C12.8425 3.4808 12.6098 3.63992 12.3457 3.71484L12.4482 4.69531C14.1438 4.80898 15.7328 5.56251 16.8936 6.80371C18.0543 8.04488 18.7002 9.68055 18.7002 11.3799V16.9004C18.7002 17.5344 18.7098 18.1918 18.8867 18.7656C19.0748 19.3754 19.4498 19.8884 20.1348 20.2314C20.1951 20.2617 20.2429 20.3119 20.2715 20.373C20.3001 20.4343 20.3075 20.5036 20.292 20.5693C20.2764 20.6349 20.2393 20.6935 20.1865 20.7354C20.1335 20.7773 20.0676 20.7998 20 20.7998H4C3.93263 20.7998 3.86734 20.7771 3.81445 20.7354C3.76153 20.6935 3.72359 20.635 3.70801 20.5693C3.69246 20.5036 3.69993 20.4343 3.72852 20.373C3.75711 20.3119 3.80583 20.2617 3.86621 20.2314L3.86523 20.2305C4.55008 19.8875 4.9252 19.3753 5.11328 18.7656C5.29027 18.1918 5.2998 17.5344 5.2998 16.9004V11.3799C5.29983 9.68029 5.94638 8.04395 7.10742 6.80273C8.26847 5.56166 9.85799 4.80861 11.5537 4.69531L11.6572 3.71484C11.4321 3.65079 11.2291 3.52541 11.0713 3.35254C10.9135 3.1795 10.8068 2.96554 10.7637 2.73535C10.7205 2.50515 10.7417 2.26729 10.8262 2.04883C10.9106 1.83035 11.0544 1.63938 11.2412 1.49805C11.4279 1.35677 11.6507 1.27095 11.8838 1.24902ZM12 5.28027C10.3822 5.28031 8.83046 5.92247 7.68652 7.06641C6.54259 8.21035 5.90042 9.76211 5.90039 11.3799V16.9805C5.90039 17.7071 5.89427 18.6483 5.47461 19.4736L5.10547 20.2002H18.8955L18.5254 19.4736C18.1057 18.6483 18.1006 17.7071 18.1006 16.9805V11.3799C18.1006 9.7621 17.4574 8.21035 16.3135 7.06641C15.1695 5.92251 13.6178 5.28027 12 5.28027Z" stroke="currentColor"/>
</g>
<defs>
<clipPath id="clip0_6204_6082">
<rect width="24" height="24" fill="currentColor" transform="translate(0 0.5)"/>
</clipPath>
</defs>
</svg>
