<svg width="36" height="20" viewBox="0 0 36 20" fill="none" xmlns="http://www.w3.org/2000/svg">
<rect x="0.5" y="0.5" width="35" height="19" rx="3.5" fill="#F7F7F7"/>
<rect x="0.5" y="0.5" width="35" height="19" rx="3.5" stroke="#EDEDED"/>
<path d="M8.45386 14.5C7.89386 14.5 7.44586 14.336 7.10986 14.008C6.78186 13.68 6.61786 13.24 6.61786 12.688C6.61786 12.104 6.78986 11.652 7.13386 11.332C7.48586 11.004 8.00186 10.84 8.68186 10.84H9.38986V9.52H8.68186C8.00186 9.52 7.48586 9.36 7.13386 9.04C6.78986 8.712 6.61786 8.256 6.61786 7.672C6.61786 7.12 6.78186 6.68 7.10986 6.352C7.44586 6.024 7.89386 5.86 8.45386 5.86C8.90186 5.86 9.25386 5.944 9.50986 6.112C9.77386 6.28 9.95786 6.504 10.0619 6.784C10.1739 7.064 10.2299 7.372 10.2299 7.708V8.704H11.5499V7.708C11.5499 7.372 11.6019 7.064 11.7059 6.784C11.8179 6.504 12.0019 6.28 12.2579 6.112C12.5219 5.944 12.8779 5.86 13.3259 5.86C13.8859 5.86 14.3299 6.024 14.6579 6.352C14.9939 6.68 15.1619 7.12 15.1619 7.672C15.1619 8.256 14.9899 8.712 14.6459 9.04C14.3019 9.36 13.7859 9.52 13.0979 9.52H12.3899V10.84H13.0979C13.7859 10.84 14.3019 11.004 14.6459 11.332C14.9899 11.652 15.1619 12.104 15.1619 12.688C15.1619 13.24 14.9939 13.68 14.6579 14.008C14.3299 14.336 13.8859 14.5 13.3259 14.5C12.8779 14.5 12.5219 14.416 12.2579 14.248C12.0019 14.08 11.8179 13.856 11.7059 13.576C11.6019 13.296 11.5499 12.988 11.5499 12.652V11.656H10.2299V12.652C10.2299 12.988 10.1739 13.296 10.0619 13.576C9.95786 13.856 9.77386 14.08 9.50986 14.248C9.25386 14.416 8.90186 14.5 8.45386 14.5ZM12.3899 7.684V8.704H13.0979C13.5219 8.704 13.8299 8.62 14.0219 8.452C14.2139 8.276 14.3099 8.016 14.3099 7.672C14.3099 7.32 14.2139 7.068 14.0219 6.916C13.8379 6.764 13.6059 6.688 13.3259 6.688C13.0139 6.688 12.7779 6.78 12.6179 6.964C12.4659 7.14 12.3899 7.38 12.3899 7.684ZM8.68186 8.704H9.38986V7.684C9.38986 7.38 9.30986 7.14 9.14986 6.964C8.99786 6.78 8.76586 6.688 8.45386 6.688C8.17386 6.688 7.93786 6.764 7.74586 6.916C7.56186 7.068 7.46986 7.32 7.46986 7.672C7.46986 8.016 7.56586 8.276 7.75786 8.452C7.94986 8.62 8.25786 8.704 8.68186 8.704ZM10.2299 10.84H11.5499V9.52H10.2299V10.84ZM8.45386 13.672C8.76586 13.672 8.99786 13.584 9.14986 13.408C9.30986 13.224 9.38986 12.98 9.38986 12.676V11.656H8.68186C8.25786 11.656 7.94986 11.744 7.75786 11.92C7.56586 12.088 7.46986 12.344 7.46986 12.688C7.46986 13.04 7.56186 13.292 7.74586 13.444C7.93786 13.596 8.17386 13.672 8.45386 13.672ZM12.3899 12.676C12.3899 12.98 12.4659 13.224 12.6179 13.408C12.7779 13.584 13.0139 13.672 13.3259 13.672C13.6059 13.672 13.8379 13.596 14.0219 13.444C14.2139 13.292 14.3099 13.04 14.3099 12.688C14.3099 12.344 14.2139 12.088 14.0219 11.92C13.8299 11.744 13.5219 11.656 13.0979 11.656H12.3899V12.676ZM19.5996 9.87109H22.0137V10.668H19.5996V13.1523H18.7969V10.668H16.3828V9.87109H18.7969V7.375H19.5996V9.87109ZM29.9941 14.5H28.8164L25.7285 10.334L24.8145 11.1543V14.5H23.8184V5.93359H24.8145V10.2051C25.0371 9.95117 25.2656 9.69922 25.5 9.44922C25.7344 9.19531 25.9668 8.93945 26.1973 8.68164L28.6992 5.93359H29.8652L26.4551 9.64844L29.9941 14.5Z" fill="#7B7B7B"/>
</svg>
