<svg width="33" height="20" viewBox="0 0 33 20" fill="none" xmlns="http://www.w3.org/2000/svg">
<rect x="0.5" y="0.5" width="32" height="19" rx="3.5" fill="#F7F7F7"/>
<rect x="0.5" y="0.5" width="32" height="19" rx="3.5" stroke="#EDEDED"/>
<path d="M6.93427 9.592L9.27427 5.08H9.51427L11.8543 9.592H10.8823L9.39427 6.64L7.90627 9.592H6.93427ZM16.2832 9.87109H18.6973V10.668H16.2832V13.1523H15.4805V10.668H13.0664V9.87109H15.4805V7.375H16.2832V9.87109ZM26.6777 14.5H25.5L22.4121 10.334L21.498 11.1543V14.5H20.502V5.93359H21.498V10.2051C21.7207 9.95117 21.9492 9.69922 22.1836 9.44922C22.418 9.19531 22.6504 8.93945 22.8809 8.68164L25.3828 5.93359H26.5488L23.1387 9.64844L26.6777 14.5Z" fill="#7B7B7B"/>
</svg>
