<svg width="20" height="20" viewBox="0 0 20 20" fill="none" xmlns="http://www.w3.org/2000/svg">
<rect x="0.5" y="0.5" width="19" height="19" rx="3.5" fill="#FCFCFC"/>
<rect x="0.5" y="0.5" width="19" height="19" rx="3.5" stroke="#EDEDED"/>
<path fill-rule="evenodd" clip-rule="evenodd" d="M13.4256 7.22552C13.4684 7.18282 13.5023 7.13211 13.5255 7.07629C13.5487 7.02047 13.5606 6.96064 13.5606 6.9002C13.5607 6.83977 13.5488 6.77992 13.5257 6.72408C13.5026 6.66823 13.4687 6.61748 13.426 6.57472C13.3833 6.53196 13.3326 6.49803 13.2768 6.47487C13.221 6.45171 13.1612 6.43977 13.1007 6.43974C13.0403 6.4397 12.9804 6.45157 12.9246 6.47466C12.8688 6.49775 12.818 6.53162 12.7752 6.57432L10 9.34952L7.22564 6.57432C7.13929 6.48797 7.02217 6.43945 6.90004 6.43945C6.77792 6.43945 6.6608 6.48797 6.57444 6.57432C6.48809 6.66068 6.43958 6.7778 6.43958 6.89992C6.43958 7.02204 6.48809 7.13917 6.57444 7.22552L9.34964 9.99992L6.57444 12.7743C6.53168 12.8171 6.49777 12.8678 6.47463 12.9237C6.45149 12.9796 6.43958 13.0395 6.43958 13.0999C6.43958 13.1604 6.45149 13.2203 6.47463 13.2761C6.49777 13.332 6.53168 13.3828 6.57444 13.4255C6.6608 13.5119 6.77792 13.5604 6.90004 13.5604C6.96051 13.5604 7.02039 13.5485 7.07626 13.5253C7.13212 13.5022 7.18288 13.4683 7.22564 13.4255L10 10.6503L12.7752 13.4255C12.8616 13.5118 12.9787 13.5602 13.1007 13.5601C13.2228 13.56 13.3398 13.5115 13.426 13.4251C13.5123 13.3388 13.5607 13.2217 13.5606 13.0996C13.5606 12.9776 13.512 12.8606 13.4256 12.7743L10.6504 9.99992L13.4256 7.22552Z" fill="#7B7B7B"/>
</svg>
