<svg width="20" height="20" fill="none" xmlns="http://www.w3.org/2000/svg">
  <rect x=".5" y=".5" width="19" height="19" rx="3.5" fill="#FCFCFC"/>
  <rect x=".5" y=".5" width="19" height="19" rx="3.5" stroke="#EDEDED"/>
  <mask id="a" fill="#fff">
    <path d="M8.132 14.61c.266 0 .442-.18.442-.441 0-.131-.04-.227-.12-.307l-1.447-1.411-.955-.814 1.18.05h6.41c1.17 0 1.657-.537 1.657-1.672V7.047c0-1.17-.488-1.657-1.658-1.657H10.83a.438.438 0 0 0-.457.447c0 .246.18.447.457.447h2.812c.533 0 .764.23.764.763v2.968c0 .547-.231.778-.764.778H7.233l-1.18.05.954-.813L8.453 8.62c.08-.08.12-.18.12-.311a.422.422 0 0 0-.441-.442.493.493 0 0 0-.327.14l-2.953 2.898c-.1.096-.15.211-.15.337 0 .12.05.24.15.336l2.953 2.898a.486.486 0 0 0 .327.136Z"/>
  </mask>
  <path d="m8.132 14.61-.033 1.5h.033v-1.5Zm.321-.748 1.06-1.06-.006-.007-.006-.006-1.048 1.073Zm-1.446-1.411 1.047-1.074-.036-.035-.038-.033-.973 1.142Zm-.955-.814.064-1.498-4.35-.185 3.313 2.825.973-1.142Zm1.18.05-.063 1.5h.064v-1.5Zm0-.893v-1.5H7.17l.064 1.5Zm-1.18.05L5.08 9.702l-3.314 2.826 4.351-.186-.064-1.498Zm.955-.814.973 1.142.038-.033.036-.035-1.047-1.074ZM8.453 8.62l1.048 1.074.006-.007.007-.006-1.06-1.061Zm-.648-.613 1.051 1.07.01-.01-1.06-1.06Zm-2.953 2.898 1.034 1.087.008-.008.009-.008-1.05-1.07Zm0 .673 1.05-1.07-.008-.009-.008-.008-1.034 1.087Zm2.953 2.898-1.05 1.07.005.006.006.005 1.04-1.08Zm.327.136v1.5a1.94 1.94 0 0 0 1.385-.567c.391-.394.557-.901.557-1.376h-3c0-.212.077-.499.314-.737.238-.24.527-.32.744-.32v1.5Zm.442-.443h1.5c0-.502-.18-.987-.56-1.367l-1.06 1.061-1.062 1.06a1.103 1.103 0 0 1-.318-.754h1.5Zm-.12-.306L9.5 12.79l-1.447-1.412-1.047 1.074-1.048 1.073 1.447 1.412 1.047-1.074Zm-1.447-1.411.973-1.142-.954-.813-.974 1.141-.973 1.142.955.813.973-1.141Zm-.955-.814-.063 1.499 1.18.05.064-1.498.063-1.5-1.18-.05-.064 1.5Zm1.18.05v1.5h6.41v-3h-6.41v1.5Zm6.41 0v1.5c.782 0 1.675-.177 2.343-.865.66-.68.814-1.564.814-2.307h-3c0 .183-.02.274-.03.303-.006.02.006-.026.063-.086a.382.382 0 0 1 .076-.06c.021-.013.031-.016.023-.013-.02.006-.105.028-.29.028v1.5Zm1.657-1.672h1.5V7.047h-3v2.968h1.5Zm0-2.968h1.5c0-.748-.149-1.647-.83-2.328-.68-.68-1.58-.83-2.328-.83v3c.197 0 .29.022.316.03.01.003 0 .001-.023-.012a.418.418 0 0 1-.152-.153c-.014-.023-.016-.033-.013-.023.008.027.03.12.03.316h1.5ZM13.64 5.39v-1.5H10.83v3h2.812v-1.5Zm-2.812 0v-1.5a1.938 1.938 0 0 0-1.957 1.947h3c0 .249-.095.521-.306.736a1.045 1.045 0 0 1-.737.317v-1.5Zm-.457.447h-1.5c0 1.053.83 1.947 1.957 1.947v-3c.24 0 .518.094.736.316.212.215.307.488.307.737h-1.5Zm.457.447v1.5h2.812v-3H10.83v1.5Zm2.812 0v1.5c.088 0-.198.024-.479-.258-.282-.28-.257-.567-.257-.479h3c0-.444-.092-1.112-.622-1.642-.53-.53-1.198-.621-1.642-.621v1.5Zm.764.763h-1.5v2.968h3V7.047h-1.5Zm0 2.968h-1.5c0 .105-.029-.176.25-.458.282-.288.575-.263.486-.263v3c.444 0 1.118-.092 1.65-.632.527-.534.614-1.205.614-1.647h-1.5Zm-.764.778v-1.5H7.233v3h6.408v-1.5Zm-6.408 0-.064-1.498-1.18.05.063 1.499.064 1.498 1.18-.05-.063-1.498Zm-1.18.05.973 1.142.954-.813-.973-1.142-.974-1.141-.954.813.973 1.142Zm.954-.813 1.047 1.074 1.447-1.411-1.048-1.074-1.047-1.074-1.447 1.412 1.048 1.073ZM8.453 8.62l1.06 1.06c.393-.391.56-.888.56-1.371h-3a1.106 1.106 0 0 1 .319-.75l1.061 1.06Zm.12-.311h1.5c0-.477-.168-.98-.551-1.37a1.938 1.938 0 0 0-1.39-.572v3c-.228 0-.516-.087-.749-.324a1.058 1.058 0 0 1-.31-.734h1.5Zm-.441-.442v-1.5c-.534 0-1.04.232-1.387.58l1.06 1.06 1.061 1.06a1.005 1.005 0 0 1-.734.3v-1.5Zm-.327.14-1.05-1.07L3.8 9.833l1.051 1.07 1.05 1.07 2.954-2.897-1.05-1.07Zm-2.953 2.898L3.818 9.817a1.954 1.954 0 0 0-.617 1.424h3a1.062 1.062 0 0 1-.315.75l-1.034-1.087Zm-.15.337h-1.5c0 .551.233 1.059.616 1.423l1.034-1.087 1.034-1.087c.183.174.315.44.315.75h-1.5Zm.15.336-1.05 1.07 2.953 2.899 1.05-1.07 1.05-1.072-2.952-2.897-1.05 1.07Zm2.953 2.898-1.04 1.082c.361.346.837.542 1.334.553l.033-1.5.033-1.5c.252.007.495.106.68.284l-1.04 1.081Z" fill="#7B7B7B" mask="url(#a)"/>
</svg>