<svg viewBox="0 0 16 16" fill="none" xmlns="http://www.w3.org/2000/svg">
<path d="M7 7.00049L2.41421 11.5863C2.149 11.8515 2 12.2112 2 12.5863C2 12.9613 2.149 13.321 2.41421 13.5863C2.67943 13.8515 3.03914 14.0005 3.41421 14.0005C3.78929 14.0005 4.149 13.8515 4.41421 13.5863L9 9.00049M6.66667 6.66716L9.33333 9.33382M4.00001 6.66716L2.55228 5.21944C1.81591 4.48306 1.81591 3.28916 2.55228 2.55278C2.90591 2.19915 3.38552 2.00049 3.88562 2.00049C4.38571 2.00049 4.86533 2.19915 5.21895 2.55278L8.00001 5.33383M3.33333 6.00049L6 3.33382M8 8.0004L11.1905 4.80986M10.6667 8.00049L13.1393 10.4731C13.3254 10.6592 13.4523 10.8963 13.5039 11.1544L13.9933 13.6016C14.0152 13.7109 13.981 13.8239 13.9022 13.9027C13.8234 13.9815 13.7104 14.0157 13.6011 13.9938L11.1539 13.5044C10.8958 13.4528 10.6587 13.3259 10.4726 13.1398L9.33333 12.0005M13.0861 2.02231L11.4512 2.56708C11.1789 2.6578 10.9953 2.91257 10.9953 3.19954V4.33855C10.9953 4.70674 11.2938 5.00521 11.6619 5.00521H12.8017C13.0887 5.00521 13.3435 4.82146 13.4342 4.54909L13.9782 2.91455C14.0181 2.79484 13.9869 2.66289 13.8977 2.57365L13.4273 2.10293C13.338 2.01361 13.2059 1.98239 13.0861 2.02231Z" stroke="#545454" stroke-linecap="round" stroke-linejoin="round"/>
</svg>
