<svg width="452" height="452" viewBox="0 0 452 452" fill="none" xmlns="http://www.w3.org/2000/svg">
<path d="M226.171 408.898C327.225 408.898 409.145 326.978 409.145 225.924C409.145 124.87 327.225 42.9502 226.171 42.9502C125.117 42.9502 43.197 124.87 43.197 225.924C43.197 326.978 125.117 408.898 226.171 408.898Z" fill="#414042"/>
<path d="M158.919 299.437L162.327 309.926H173.356L164.433 316.408L167.841 326.897L158.919 320.415L149.996 326.897L153.404 316.408L144.482 309.926H155.511L158.919 299.437Z" fill="#E6E7E8"/>
<path d="M192.376 299.437L195.784 309.926H206.813L197.891 316.408L201.299 326.897L192.376 320.415L183.454 326.897L186.862 316.408L177.939 309.926H188.968L192.376 299.437Z" fill="#E6E7E8"/>
<path d="M225.834 299.437L229.242 309.926H240.271L231.348 316.408L234.756 326.897L225.834 320.415L216.911 326.897L220.319 316.408L211.397 309.926H222.426L225.834 299.437Z" fill="#E6E7E8"/>
<path d="M259.291 299.437L262.699 309.926H273.728L264.806 316.408L268.214 326.897L259.291 320.415L250.369 326.897L253.777 316.408L244.854 309.926H255.883L259.291 299.437Z" fill="#E6E7E8"/>
<path d="M292.749 299.437L296.157 309.926H307.186L298.263 316.408L301.671 326.897L292.749 320.415L283.826 326.897L287.234 316.408L278.311 309.926H289.341L292.749 299.437Z" fill="#E6E7E8"/>
<path d="M126.156 194.376C130.56 194.376 133.773 195.325 135.796 197.224C137.819 199.106 138.83 201.705 138.83 205.02C138.83 206.513 138.605 207.945 138.153 209.314C137.702 210.668 136.963 211.874 135.936 212.932C134.924 213.99 133.571 214.831 131.875 215.453C130.178 216.06 128.085 216.363 125.596 216.363H122.491V228.501H115.256V194.376H126.156ZM125.782 200.305H122.491V210.435H124.872C126.226 210.435 127.401 210.256 128.397 209.898C129.393 209.54 130.163 208.98 130.707 208.217C131.252 207.455 131.524 206.475 131.524 205.276C131.524 203.596 131.058 202.351 130.124 201.542C129.19 200.717 127.743 200.305 125.782 200.305ZM155.216 194.376C158.313 194.376 160.865 194.749 162.872 195.496C164.895 196.243 166.396 197.371 167.377 198.881C168.357 200.39 168.847 202.296 168.847 204.599C168.847 206.156 168.552 207.517 167.96 208.684C167.369 209.851 166.591 210.839 165.626 211.649C164.661 212.458 163.619 213.119 162.498 213.633L172.535 228.501H164.506L156.36 215.406H152.508V228.501H145.272V194.376H155.216ZM154.702 200.305H152.508V209.524H154.842C157.239 209.524 158.951 209.128 159.978 208.334C161.02 207.525 161.541 206.342 161.541 204.786C161.541 203.168 160.981 202.016 159.861 201.332C158.756 200.647 157.037 200.305 154.702 200.305ZM196.483 228.501H176.83V194.376H196.483V200.305H184.066V207.797H195.62V213.726H184.066V222.526H196.483V228.501ZM218.074 228.501L209.858 201.728H209.648C209.679 202.366 209.726 203.331 209.788 204.623C209.866 205.899 209.936 207.26 209.998 208.708C210.06 210.155 210.091 211.462 210.091 212.629V228.501H203.626V194.376H213.476L221.552 220.472H221.692L230.258 194.376H240.108V228.501H233.363V212.349C233.363 211.275 233.378 210.038 233.409 208.637C233.456 207.237 233.511 205.907 233.573 204.646C233.635 203.37 233.682 202.413 233.713 201.775H233.503L224.703 228.501H218.074ZM248.721 228.501V194.376H255.957V228.501H248.721ZM292.323 194.376V216.457C292.323 218.807 291.802 220.931 290.759 222.829C289.732 224.712 288.168 226.206 286.068 227.311C283.982 228.415 281.353 228.968 278.178 228.968C273.666 228.968 270.227 227.816 267.861 225.513C265.496 223.21 264.313 220.16 264.313 216.363V194.376H271.526V215.266C271.526 218.083 272.102 220.059 273.253 221.195C274.405 222.331 276.109 222.899 278.365 222.899C279.952 222.899 281.236 222.627 282.216 222.082C283.212 221.537 283.943 220.697 284.41 219.561C284.877 218.425 285.111 216.978 285.111 215.22V194.376H292.323ZM315.128 228.501L306.911 201.728H306.701C306.732 202.366 306.779 203.331 306.841 204.623C306.919 205.899 306.989 207.26 307.051 208.708C307.114 210.155 307.145 211.462 307.145 212.629V228.501H300.679V194.376H310.529L318.605 220.472H318.745L327.312 194.376H337.162V228.501H330.416V212.349C330.416 211.275 330.432 210.038 330.463 208.637C330.51 207.237 330.564 205.907 330.626 204.646C330.688 203.37 330.735 202.413 330.766 201.775H330.556L321.757 228.501H315.128Z" fill="#E6E7E8"/>
<path d="M161.81 276.304L159.335 268.181H146.894L144.42 276.304H136.624L148.668 242.039H157.515L169.606 276.304H161.81ZM157.608 262.112L155.134 254.176C154.978 253.647 154.768 252.97 154.504 252.145C154.255 251.305 153.998 250.457 153.733 249.601C153.485 248.73 153.282 247.975 153.127 247.337C152.971 247.975 152.753 248.769 152.473 249.718C152.209 250.652 151.952 251.539 151.703 252.379C151.454 253.219 151.275 253.818 151.166 254.176L148.715 262.112H157.608ZM215.845 242.179L207.162 276.304H198.922L194.301 258.378C194.207 258.035 194.083 257.514 193.927 256.814C193.772 256.113 193.608 255.351 193.437 254.526C193.266 253.686 193.11 252.9 192.97 252.169C192.846 251.422 192.76 250.831 192.714 250.395C192.667 250.831 192.574 251.414 192.433 252.145C192.309 252.877 192.161 253.655 191.99 254.48C191.834 255.304 191.679 256.075 191.523 256.79C191.368 257.506 191.243 258.051 191.15 258.424L186.551 276.304H178.335L169.629 242.179H176.748L181.113 260.805C181.237 261.365 181.377 262.034 181.533 262.812C181.704 263.59 181.868 264.407 182.023 265.263C182.194 266.104 182.342 266.92 182.467 267.714C182.607 268.492 182.708 269.169 182.77 269.745C182.848 269.153 182.949 268.469 183.074 267.691C183.198 266.897 183.33 266.096 183.47 265.287C183.626 264.462 183.782 263.699 183.937 262.999C184.093 262.299 184.233 261.731 184.357 261.295L189.329 242.179H196.168L201.14 261.295C201.249 261.715 201.373 262.283 201.513 262.999C201.669 263.699 201.824 264.462 201.98 265.287C202.136 266.111 202.276 266.92 202.4 267.714C202.54 268.492 202.641 269.169 202.704 269.745C202.813 268.967 202.96 268.025 203.147 266.92C203.349 265.8 203.56 264.687 203.777 263.583C204.011 262.478 204.213 261.552 204.384 260.805L208.726 242.179H215.845ZM241.03 276.304L238.556 268.181H226.115L223.641 276.304H215.845L227.889 242.039H236.735L248.826 276.304H241.03ZM236.829 262.112L234.355 254.176C234.199 253.647 233.989 252.97 233.724 252.145C233.475 251.305 233.219 250.457 232.954 249.601C232.705 248.73 232.503 247.975 232.347 247.337C232.192 247.975 231.974 248.769 231.694 249.718C231.429 250.652 231.172 251.539 230.923 252.379C230.674 253.219 230.495 253.818 230.386 254.176L227.936 262.112H236.829ZM263.088 242.179C266.184 242.179 268.736 242.552 270.744 243.299C272.767 244.046 274.268 245.174 275.249 246.684C276.229 248.193 276.719 250.099 276.719 252.402C276.719 253.958 276.423 255.32 275.832 256.487C275.241 257.654 274.463 258.642 273.498 259.451C272.533 260.26 271.491 260.922 270.37 261.435L280.407 276.304H272.378L264.231 263.209H260.38V276.304H253.144V242.179H263.088ZM262.574 248.107H260.38V257.327H262.714C265.111 257.327 266.822 256.93 267.849 256.137C268.892 255.328 269.413 254.145 269.413 252.589C269.413 250.971 268.853 249.819 267.733 249.134C266.628 248.45 264.908 248.107 262.574 248.107ZM313.015 258.914C313.015 262.758 312.276 265.971 310.797 268.554C309.335 271.122 307.211 273.059 304.425 274.366C301.64 275.658 298.287 276.304 294.365 276.304H284.702V242.179H295.416C298.995 242.179 302.099 242.817 304.729 244.093C307.359 245.353 309.397 247.228 310.844 249.718C312.291 252.192 313.015 255.258 313.015 258.914ZM305.499 259.101C305.499 256.58 305.126 254.511 304.379 252.892C303.647 251.258 302.558 250.052 301.111 249.274C299.679 248.496 297.905 248.107 295.789 248.107H291.938V270.328H295.042C298.574 270.328 301.196 269.387 302.908 267.504C304.635 265.621 305.499 262.82 305.499 259.101Z" fill="#E6E7E8"/>
<path d="M270.204 126.452C268.181 126.452 266.542 128.092 266.542 130.114C266.542 130.92 266.855 131.626 267.296 132.231L249.046 144.069L228.19 113.306C229.159 112.647 229.835 111.59 229.835 110.331C229.835 108.308 228.195 106.669 226.173 106.669C224.151 106.669 222.511 108.309 222.511 110.331C222.511 111.591 223.187 112.648 224.156 113.306L203.3 144.069L185.05 132.231C185.491 131.626 185.804 130.92 185.804 130.113C185.804 128.091 184.165 126.451 182.142 126.451C180.12 126.451 178.48 128.091 178.48 130.113C178.48 132.136 180.12 133.776 182.142 133.776V157.221H226.174H270.206V133.776C272.228 133.776 273.868 132.136 273.868 130.113C273.866 128.092 272.226 126.452 270.204 126.452Z" fill="#E6E7E8"/>
<path d="M269.441 162.384H182.226V166.277H269.441V162.384Z" fill="#E6E7E8"/>
<path d="M226.171 391.613C134.81 391.613 60.484 317.285 60.484 225.925C60.484 134.565 134.81 60.2383 226.171 60.2383C317.532 60.2383 391.86 134.564 391.86 225.925C391.86 317.286 317.532 391.613 226.171 391.613ZM226.171 66.2123C138.106 66.2123 66.459 137.859 66.459 225.924C66.459 313.99 138.106 385.635 226.171 385.635C314.237 385.635 385.882 313.991 385.882 225.924C385.882 137.859 314.237 66.2123 226.171 66.2123Z" fill="#E6E7E8"/>
<path d="M451.908 225.924C451.908 206.437 433.456 189.635 428.652 171.663C423.682 153.067 431.115 129.318 421.695 113.036C412.14 96.5205 387.764 91.1406 374.361 77.7366C360.957 64.3326 355.577 39.9576 339.062 30.4016C322.78 20.9816 299.03 28.4146 280.434 23.4436C262.461 18.6396 245.658 0.1875 226.171 0.1875C206.684 0.1875 189.882 18.6396 171.909 23.4436C153.313 28.4136 129.564 20.9805 113.282 30.4005C96.766 39.9565 91.3861 64.3306 77.9821 77.7346C64.5781 91.1386 40.203 96.5186 30.647 113.034C21.227 129.315 28.6601 153.065 23.6891 171.661C18.8851 189.634 0.432007 206.436 0.432007 225.924C0.432007 245.411 18.885 262.214 23.688 280.187C28.658 298.783 21.225 322.533 30.645 338.814C40.2 355.33 64.575 360.71 77.979 374.114C91.383 387.518 96.7631 411.893 113.278 421.448C129.56 430.868 153.31 423.435 171.906 428.406C189.879 433.21 206.682 451.662 226.169 451.662C245.656 451.662 262.458 433.211 280.431 428.407C299.027 423.437 322.777 430.87 339.058 421.45C355.574 411.894 360.954 387.52 374.358 374.116C387.762 360.713 412.137 355.332 421.692 338.816C431.112 322.535 423.679 298.785 428.65 280.188C433.455 262.215 451.908 245.412 451.908 225.924ZM226.171 408.899C125.117 408.899 43.197 326.978 43.197 225.924C43.197 124.87 125.117 42.9506 226.171 42.9506C327.225 42.9506 409.145 124.87 409.145 225.924C409.145 326.978 327.225 408.899 226.171 408.899Z" fill="#4796FD"/>
</svg>
