<svg width="24" height="24" viewBox="0 0 24 24" fill="none" xmlns="http://www.w3.org/2000/svg">
<path fill-rule="evenodd" clip-rule="evenodd" d="M16 10.4C16 11.1354 15.8551 11.8636 15.5737 12.543C15.2923 13.2225 14.8798 13.8398 14.3598 14.3598C13.8398 14.8798 13.2224 15.2923 12.543 15.5737C11.8636 15.8552 11.1354 16 10.4 16C9.66457 16 8.93637 15.8552 8.25695 15.5737C7.57752 15.2923 6.96018 14.8798 6.44018 14.3598C5.92017 13.8398 5.50767 13.2225 5.22625 12.543C4.94482 11.8636 4.79997 11.1354 4.79997 10.4C4.79997 8.91479 5.38997 7.49041 6.44018 6.44021C7.49038 5.39 8.91476 4.8 10.4 4.8C11.8852 4.8 13.3096 5.39 14.3598 6.44021C15.41 7.49041 16 8.91479 16 10.4ZM14.8944 16.0256C13.4566 17.1742 11.6337 17.7287 9.79987 17.5753C7.96606 17.4218 6.26062 16.572 5.0338 15.2004C3.80697 13.8288 3.1519 12.0395 3.20311 10.2C3.25432 8.36049 4.00792 6.61041 5.30915 5.30918C6.61038 4.00795 8.36046 3.25435 10.2 3.20314C12.0395 3.15193 13.8288 3.80701 15.2004 5.03383C16.572 6.26065 17.4218 7.96609 17.5752 9.7999C17.7287 11.6337 17.1742 13.4567 16.0256 14.8944L20.5664 19.4336C20.6408 19.508 20.6998 19.5963 20.74 19.6935C20.7803 19.7907 20.801 19.8948 20.801 20C20.801 20.1052 20.7803 20.2094 20.74 20.3065C20.6998 20.4037 20.6408 20.492 20.5664 20.5664C20.492 20.6408 20.4037 20.6998 20.3065 20.74C20.2093 20.7803 20.1052 20.801 20 20.801C19.8948 20.801 19.7906 20.7803 19.6934 20.74C19.5963 20.6998 19.508 20.6408 19.4336 20.5664L14.8944 16.0256Z" fill="currentColor"/>
</svg>
