<svg fill="none" viewBox="0 0 54 54" xmlns="http://www.w3.org/2000/svg">
<g clip-path="url(#a)">
<path d="m11.379 33.999c0 3.1365-2.5339 5.6514-5.6514 5.6514s-5.6704-2.5339-5.6704-5.6514c0-3.1176 2.5339-5.6514 5.6514-5.6514h5.6514v5.6514h0.019z" fill="#E01E5A"/>
<path d="m14.196 34c0-3.1365 2.5339-5.6514 5.6514-5.6514s5.6514 2.5339 5.6514 5.6514v14.136c0 3.1365-2.5339 5.6514-5.6514 5.6514s-5.6514-2.5149-5.6514-5.6514v-14.136z" fill="#E01E5A"/>
<path d="m19.866 11.267c-3.1366 0-5.6514-2.5338-5.6514-5.6514 0-3.1175 2.5338-5.6514 5.6514-5.6514 3.1175 0 5.6513 2.5339 5.6513 5.6514v5.6514h-5.6513z" fill="#36C5F0"/>
<path d="m19.868 14.133c3.1365 0 5.6514 2.5339 5.6514 5.6514s-2.5339 5.6514-5.6514 5.6514h-14.193c-3.1365 0-5.6514-2.5339-5.6514-5.6514s2.5339-5.6514 5.6514-5.6514h14.193z" fill="#36C5F0"/>
<path d="m42.532 19.785c0-3.1365 2.5339-5.6514 5.6514-5.6514s5.6514 2.5339 5.6514 5.6514-2.5339 5.6514-5.6514 5.6514h-5.6514v-5.6514z" fill="#2EB67D"/>
<path d="m39.713 19.793c0 3.1365-2.5339 5.6514-5.6514 5.6514-3.1176 0-5.6514-2.5338-5.6514-5.6514v-14.174c0-3.1365 2.5338-5.6514 5.6514-5.6514 3.1175 0 5.6514 2.5149 5.6514 5.6514v14.174z" fill="#2EB67D"/>
<path d="m34.038 42.482c3.1365 0 5.6514 2.5338 5.6514 5.6514 0 3.1175-2.5338 5.6514-5.6514 5.6514-3.1175 0-5.6514-2.5339-5.6514-5.6514v-5.6514h5.6514z" fill="#ECB22E"/>
<path d="m34.038 39.651c-3.1365 0-5.6514-2.5339-5.6514-5.6514s2.5339-5.6514 5.6514-5.6514h14.192c3.1365 0 5.6514 2.5339 5.6514 5.6514s-2.5338 5.6514-5.6514 5.6514h-14.192z" fill="#ECB22E"/>
</g>
<defs>
<clipPath id="a">
<rect width="54" height="54" fill="#fff"/>
</clipPath>
</defs>
</svg>