<svg width="14" height="14" viewBox="0 0 14 14" fill="none" xmlns="http://www.w3.org/2000/svg">
<path d="M8.99997 6.4286C9.22729 6.4286 9.44531 6.33829 9.60606 6.17755C9.7668 6.0168 9.85711 5.79878 9.85711 5.57146C9.85711 5.34413 9.7668 5.12611 9.60606 4.96536C9.44531 4.80462 9.22729 4.71431 8.99997 4.71431C8.77264 4.71431 8.55462 4.80462 8.39387 4.96536C8.23313 5.12611 8.14282 5.34413 8.14282 5.57146C8.14282 5.79878 8.23313 6.0168 8.39387 6.17755C8.55462 6.33829 8.77264 6.4286 8.99997 6.4286ZM5.85711 5.57146C5.85711 5.79878 5.7668 6.0168 5.60606 6.17755C5.44531 6.33829 5.22729 6.4286 4.99997 6.4286C4.77264 6.4286 4.55462 6.33829 4.39387 6.17755C4.23313 6.0168 4.14282 5.79878 4.14282 5.57146C4.14282 5.34413 4.23313 5.12611 4.39387 4.96536C4.55462 4.80462 4.77264 4.71431 4.99997 4.71431C5.22729 4.71431 5.44531 4.80462 5.60606 4.96536C5.7668 5.12611 5.85711 5.34413 5.85711 5.57146ZM3.75882 8.7886C3.85249 8.72484 3.9676 8.70077 4.07896 8.72165C4.19033 8.74253 4.2889 8.80667 4.35311 8.90003L4.35825 8.90688L4.38339 8.9406C4.40739 8.97145 4.44625 9.01831 4.49939 9.0766C4.60625 9.1926 4.76911 9.35088 4.98968 9.50917C5.42854 9.82517 6.09254 10.1429 6.99997 10.1429C7.90739 10.1429 8.57139 9.82517 9.01025 9.50917C9.23082 9.35088 9.39425 9.1926 9.50054 9.0766C9.55048 9.02235 9.59778 8.96571 9.64225 8.90688L9.64625 8.90117C9.71028 8.80721 9.80902 8.74253 9.92074 8.72136C10.0325 8.7002 10.148 8.72428 10.242 8.78831C10.3359 8.85234 10.4006 8.95108 10.4218 9.0628C10.4429 9.17451 10.4189 9.29006 10.3548 9.38403L10.3537 9.3846V9.38574L10.352 9.38745L10.348 9.39317L10.3354 9.41088L10.292 9.46803C10.2409 9.53259 10.1875 9.5953 10.132 9.65603C9.94447 9.8599 9.7363 10.0437 9.51082 10.2046C8.95654 10.604 8.12111 11 6.99997 11C5.87882 11 5.04339 10.6035 4.48911 10.2052C4.26337 10.044 4.05501 9.85975 3.86739 9.65545C3.79151 9.57181 3.7198 9.48446 3.65254 9.39374L3.64797 9.38803L3.64682 9.38574L3.64625 9.3846L3.64568 9.38403C3.58173 9.29006 3.55772 9.17454 3.57894 9.06288C3.60015 8.95122 3.66486 8.85255 3.75882 8.7886ZM6.99997 0.142883C3.21311 0.142883 0.142822 3.21317 0.142822 7.00003C0.142822 10.7869 3.21311 13.8572 6.99997 13.8572C10.7868 13.8572 13.8571 10.7869 13.8571 7.00003C13.8571 3.21317 10.7868 0.142883 6.99997 0.142883ZM0.999965 7.00003C0.999965 3.68631 3.68625 1.00003 6.99997 1.00003C10.3137 1.00003 13 3.68631 13 7.00003C13 10.3137 10.3137 13 6.99997 13C3.68625 13 0.999965 10.3137 0.999965 7.00003Z" fill="#363636"/>
</svg>