<svg width="20" height="20" viewBox="0 0 20 20" fill="none" xmlns="http://www.w3.org/2000/svg">
<path fill-rule="evenodd" clip-rule="evenodd"  d="M15.7093 5.37603C15.7806 5.30485 15.8371 5.22034 15.8757 5.12731C15.9143 5.03428 15.9342 4.93456 15.9343 4.83384C15.9343 4.73312 15.9146 4.63337 15.8761 4.54029C15.8376 4.44721 15.7811 4.36263 15.71 4.29136C15.6388 4.2201 15.5543 4.16355 15.4612 4.12495C15.3682 4.08635 15.2685 4.06645 15.1678 4.06639C15.0671 4.06633 14.9673 4.0861 14.8742 4.12459C14.7812 4.16308 14.6966 4.21952 14.6253 4.2907L9.99997 8.91603L5.37597 4.2907C5.23205 4.14677 5.03684 4.06592 4.8333 4.06592C4.62976 4.06592 4.43456 4.14677 4.29064 4.2907C4.14671 4.43462 4.06586 4.62983 4.06586 4.83336C4.06586 5.0369 4.14671 5.23211 4.29064 5.37603L8.91597 10L4.29064 14.624C4.21937 14.6953 4.16284 14.7799 4.12428 14.873C4.08571 14.9661 4.06586 15.0659 4.06586 15.1667C4.06586 15.2675 4.08571 15.3673 4.12428 15.4604C4.16284 15.5535 4.21937 15.6381 4.29064 15.7094C4.43456 15.8533 4.62976 15.9341 4.8333 15.9341C4.93409 15.9341 5.03388 15.9143 5.12699 15.8757C5.2201 15.8372 5.30471 15.7806 5.37597 15.7094L9.99997 11.084L14.6253 15.7094C14.7692 15.8531 14.9644 15.9338 15.1678 15.9337C15.3712 15.9335 15.5662 15.8526 15.71 15.7087C15.8537 15.5648 15.9344 15.3696 15.9343 15.1662C15.9342 14.9628 15.8532 14.7678 15.7093 14.624L11.084 10L15.7093 5.37603Z" fill="currentColor"/>
</svg>
